<mxfile>
    <diagram id="WSlb-377B8OESTIZ7gNn" name="Page-1">
        <mxGraphModel dx="769" dy="575" grid="1" gridSize="10" guides="1" tooltips="1" connect="1" arrows="1" fold="1" page="1" pageScale="1" pageWidth="827" pageHeight="1169" math="0" shadow="0">
            <root>
                <mxCell id="0"/>
                <mxCell id="1" parent="0"/>
                <mxCell id="jX7p9ODw6ThJtBg9-2f8-1" value="Akter 2" style="shape=umlActor;verticalLabelPosition=bottom;verticalAlign=top;html=1;" parent="1" vertex="1">
                    <mxGeometry x="310" y="165" width="60" height="120" as="geometry"/>
                </mxCell>
                <mxCell id="jX7p9ODw6ThJtBg9-2f8-2" value="" style="rounded=0;whiteSpace=wrap;html=1;" parent="1" vertex="1">
                    <mxGeometry x="409" y="100" width="236" height="340" as="geometry"/>
                </mxCell>
                <mxCell id="jX7p9ODw6ThJtBg9-2f8-3" value="Kooharica" style="text;html=1;strokeColor=none;fillColor=none;align=center;verticalAlign=middle;whiteSpace=wrap;rounded=0;" parent="1" vertex="1">
                    <mxGeometry x="507" y="100" width="40" height="20" as="geometry"/>
                </mxCell>
                <mxCell id="jX7p9ODw6ThJtBg9-2f8-9" value="«Actor»&lt;br&gt;&lt;b&gt;Firebase Auth&lt;/b&gt;" style="html=1;" parent="1" vertex="1">
                    <mxGeometry x="700" y="140" width="110" height="50" as="geometry"/>
                </mxCell>
                <mxCell id="jX7p9ODw6ThJtBg9-2f8-10" value="«Actor»&lt;br&gt;&lt;b&gt;Firebase Firestore&lt;/b&gt;" style="html=1;" parent="1" vertex="1">
                    <mxGeometry x="700" y="235" width="110" height="50" as="geometry"/>
                </mxCell>
                <mxCell id="jX7p9ODw6ThJtBg9-2f8-11" value="" style="endArrow=none;html=1;entryX=0;entryY=0.5;entryDx=0;entryDy=0;" parent="1" edge="1">
                    <mxGeometry width="50" height="50" relative="1" as="geometry">
                        <mxPoint x="370" y="210" as="sourcePoint"/>
                        <mxPoint x="467" y="190" as="targetPoint"/>
                    </mxGeometry>
                </mxCell>
                <mxCell id="jX7p9ODw6ThJtBg9-2f8-12" value="" style="endArrow=none;html=1;entryX=0;entryY=0.5;entryDx=0;entryDy=0;exitX=1;exitY=0.5;exitDx=0;exitDy=0;" parent="1" target="jX7p9ODw6ThJtBg9-2f8-9" edge="1">
                    <mxGeometry width="50" height="50" relative="1" as="geometry">
                        <mxPoint x="587" y="190" as="sourcePoint"/>
                        <mxPoint x="482" y="200" as="targetPoint"/>
                    </mxGeometry>
                </mxCell>
                <mxCell id="jX7p9ODw6ThJtBg9-2f8-13" value="" style="endArrow=none;html=1;entryX=0;entryY=0.5;entryDx=0;entryDy=0;" parent="1" source="jX7p9ODw6ThJtBg9-2f8-1" edge="1">
                    <mxGeometry width="50" height="50" relative="1" as="geometry">
                        <mxPoint x="390" y="230" as="sourcePoint"/>
                        <mxPoint x="467" y="280" as="targetPoint"/>
                    </mxGeometry>
                </mxCell>
                <mxCell id="jX7p9ODw6ThJtBg9-2f8-14" value="" style="endArrow=none;html=1;entryX=0;entryY=0.5;entryDx=0;entryDy=0;exitX=1;exitY=0.5;exitDx=0;exitDy=0;" parent="1" target="jX7p9ODw6ThJtBg9-2f8-10" edge="1">
                    <mxGeometry width="50" height="50" relative="1" as="geometry">
                        <mxPoint x="587" y="280" as="sourcePoint"/>
                        <mxPoint x="502" y="220" as="targetPoint"/>
                    </mxGeometry>
                </mxCell>
                <mxCell id="jX7p9ODw6ThJtBg9-2f8-15" value="" style="endArrow=none;html=1;entryX=0;entryY=0.5;entryDx=0;entryDy=0;exitX=1;exitY=0.5;exitDx=0;exitDy=0;" parent="1" target="jX7p9ODw6ThJtBg9-2f8-9" edge="1">
                    <mxGeometry width="50" height="50" relative="1" as="geometry">
                        <mxPoint x="587" y="280" as="sourcePoint"/>
                        <mxPoint x="512" y="230" as="targetPoint"/>
                    </mxGeometry>
                </mxCell>
                <mxCell id="jX7p9ODw6ThJtBg9-2f8-16" value="" style="endArrow=none;html=1;entryX=0;entryY=0.5;entryDx=0;entryDy=0;exitX=1;exitY=0.5;exitDx=0;exitDy=0;" parent="1" target="jX7p9ODw6ThJtBg9-2f8-10" edge="1">
                    <mxGeometry width="50" height="50" relative="1" as="geometry">
                        <mxPoint x="587" y="190" as="sourcePoint"/>
                        <mxPoint x="522" y="240" as="targetPoint"/>
                    </mxGeometry>
                </mxCell>
                <mxCell id="bP8phT1iYEKErBA6uqyo-1" value="Evidencija sakupljenih jaja" style="ellipse;whiteSpace=wrap;html=1;" parent="1" vertex="1">
                    <mxGeometry x="467" y="150" width="120" height="80" as="geometry"/>
                </mxCell>
                <mxCell id="bP8phT1iYEKErBA6uqyo-2" value="Evidencija količine potrošene hrane" style="ellipse;whiteSpace=wrap;html=1;" parent="1" vertex="1">
                    <mxGeometry x="467" y="241" width="120" height="80" as="geometry"/>
                </mxCell>
                <mxCell id="2" value="Pregled unosa" style="ellipse;whiteSpace=wrap;html=1;" vertex="1" parent="1">
                    <mxGeometry x="467" y="330" width="120" height="80" as="geometry"/>
                </mxCell>
                <mxCell id="3" value="" style="endArrow=none;html=1;exitX=1;exitY=0.5;exitDx=0;exitDy=0;entryX=0;entryY=0.5;entryDx=0;entryDy=0;" edge="1" parent="1" source="2" target="jX7p9ODw6ThJtBg9-2f8-9">
                    <mxGeometry width="50" height="50" relative="1" as="geometry">
                        <mxPoint x="597" y="290" as="sourcePoint"/>
                        <mxPoint x="700" y="170" as="targetPoint"/>
                    </mxGeometry>
                </mxCell>
                <mxCell id="4" value="" style="endArrow=none;html=1;entryX=0;entryY=0.5;entryDx=0;entryDy=0;exitX=1;exitY=0.5;exitDx=0;exitDy=0;" edge="1" parent="1" source="2" target="jX7p9ODw6ThJtBg9-2f8-10">
                    <mxGeometry width="50" height="50" relative="1" as="geometry">
                        <mxPoint x="607" y="300" as="sourcePoint"/>
                        <mxPoint x="720" y="185" as="targetPoint"/>
                    </mxGeometry>
                </mxCell>
                <mxCell id="5" value="" style="endArrow=none;html=1;entryX=1;entryY=1;entryDx=0;entryDy=0;exitX=0;exitY=0.5;exitDx=0;exitDy=0;entryPerimeter=0;" edge="1" parent="1" source="2" target="jX7p9ODw6ThJtBg9-2f8-1">
                    <mxGeometry width="50" height="50" relative="1" as="geometry">
                        <mxPoint x="617" y="310" as="sourcePoint"/>
                        <mxPoint x="730" y="195" as="targetPoint"/>
                    </mxGeometry>
                </mxCell>
            </root>
        </mxGraphModel>
    </diagram>
</mxfile>